<?xml version="1.0" encoding="utf-8"?>
<!-- Generator: Adobe Illustrator 14.0.0, SVG Export Plug-In . SVG Version: 6.00 Build 43363)  -->
<!DOCTYPE svg PUBLIC "-//W3C//DTD SVG 1.1//EN" "http://www.w3.org/Graphics/SVG/1.1/DTD/svg11.dtd">
<svg version="1.1" id="Layer_1" xmlns="http://www.w3.org/2000/svg" xmlns:xlink="http://www.w3.org/1999/xlink" x="0px" y="0px"
	 width="250px" height="250px" viewBox="0 0 250 250" enable-background="new 0 0 250 250" xml:space="preserve">
<g>
	<path fill="#FFFFFF" d="M109.131,142.867c-0.019,0-0.019-0.019-0.056-0.019c-0.211,0.037-0.404,0.083-0.57,0.152
		c-2.311,0.819-4.096,4.372-3.792,11.271c0.396,8.505,6.121,13.922,11.184,15.174c0.276,0.064,0.479,0.12,0.663,0.12
		c1.159,0.036,0-1.362-1.206-2.55c-1.354-1.34-3.525-3.779-3.525-7.276c0-0.424,0.064-0.848,0.138-1.294
		c0.046-0.11,0.092-0.244,0.12-0.354c0.083-0.294,0.165-0.575,0.285-0.869c0.064-0.18,0.166-0.359,0.276-0.548
		c0.101-0.198,0.193-0.387,0.313-0.594c0.139-0.207,0.304-0.433,0.497-0.64c0.092-0.134,0.185-0.244,0.276-0.359
		c0.202-0.244,0.441-0.487,0.709-0.695c0.064-0.087,0.129-0.124,0.212-0.207c0.285-0.239,0.579-0.465,0.911-0.653
		c0.036-0.009,0.073-0.037,0.119-0.064c0.35-0.207,0.728-0.396,1.114-0.548c0.414-0.151,0.855-0.262,1.298-0.345h-0.01
		C116.633,148.666,112.436,143.47,109.131,142.867"/>
	<path fill="#FFFFFF" d="M117.001,174.887c0,0-0.35-1.776-1.271-2.522c-0.884-0.699-1.427-1.233-2.521-0.884
		c0,0-2.697,1.252-2.697,7.539c0,4.851,2.697,6.471,2.697,6.471s-1.077-5.385,0.368-7.713
		C115.04,175.448,117.001,174.887,117.001,174.887"/>
	<path fill="#FFFFFF" d="M121.355,177.556c0,0,1.822,2.338,2.53,3.231l2.348-2.863l2.348,2.863c0.718-0.894,2.521-3.231,2.521-3.231
		c0.921,0.185,1.979,2.522,1.979,2.522c1.832-1.804,1.832-4.676,1.832-4.676c-0.571-1.262-3.637-0.516-4.354,0.901
		c-1.445-1.417-3.434-0.718-4.326,0.175c-0.893-0.893-2.899-1.592-4.326-0.175c-0.718-1.417-3.802-2.163-4.326-0.901
		c0,0,0,2.872,1.795,4.676C119.376,180.078,120.462,177.74,121.355,177.556"/>
	<path fill="#FFFFFF" d="M117.065,218.315c0.599,0,2.007-0.976,2.007-3.313c0-2.348-0.663-2.191-0.663-2.191
		c-4.096-0.387-2.725-6.756-2.725-6.756c-0.791,0.976-1.96,2.715-1.96,5.836C113.725,216.962,116.467,218.315,117.065,218.315"/>
	<path fill="#FFFFFF" d="M135.844,218.315c0.579,0,3.313-1.354,3.313-6.425c0-3.121-1.169-4.86-1.951-5.836
		c0,0,1.371,6.369-2.762,6.756c0,0-0.636-0.156-0.636,2.191C133.809,217.34,135.245,218.315,135.844,218.315"/>
	<path fill="#FFFFFF" d="M114.11,123.058c-0.267-0.179-2.678-1.666-5.311-2.789c-1.685-0.736-3.443-1.312-4.713-1.247
		c-3.351,0.124-5.459,3.742-13.808,0.773c-6.932-2.467-7.3-9.707-6.812-13.808c0.165-1.449-1.666-3.337-2.817-4.993
		c-1.5-2.228-2.559-5.942-2.678-6.347c-0.019-0.028-0.028-0.083-0.028-0.083s-5.081,11.594-3.783,18.814
		c0.672,3.654,2.826,8.556,7.88,10.876c-5.431,1.781-13.025,6.549-16.919,15.639c-5.68,13.159-4.022,19.699-4.022,19.699
		s5.237-6.439,12.15-6.655c-0.718,3.985-1.261,10.452,1.169,20.716c0,0,3.627-8.027,10.484-8.027
		c0.276,5.21,1.537,14.24,2.688,18.355c2.899,10.144,6.866,16.09,7.097,16.421l0.037,0.056c0,0,2.153-2.412,3.902-3.729
		c0.276-0.193,0.543-0.404,0.819-0.543c0,0-0.893-4.952-1.813-7.271c-0.046-0.074-0.064-0.203-0.11-0.295
		c-1.905-5.118-1.739-8.947-1.62-11.819c0.027,0.074,1.951,2.965,4.207,7.42c0.901,1.767,1.859,3.811,2.761,6.001
		c0.111,0.239,0.222,0.497,0.332,0.755c0.019,0.056,0.055,0.129,0.073,0.212c0.736,1.795,1.399,3.71,1.988,5.661
		c0.433,1.408,0.718,3.01,0.93,4.713c0.93,7.475,0.663,17.223,5.284,23.527c4.252,5.781,11.708,5.873,11.708,5.873
		c1.031,0.073,1.961,0.073,2.881,0.037h0.166c0.019-0.037,1.51-1.823,1.556-3.618c0.009-1.444-1.454-2.954-1.454-2.954
		c-0.056,0-0.102-0.019-0.166-0.019c-0.276-0.019-0.57-0.037-0.865-0.037c-0.11,0-0.23-0.019-0.35-0.037
		c-0.304-0.018-0.607-0.055-0.902-0.073c-0.119-0.019-0.258-0.046-0.396-0.056c-0.304-0.027-0.599-0.055-0.921-0.11
		c-0.129-0.018-0.285-0.055-0.423-0.073c-0.295-0.037-0.607-0.092-0.93-0.166c-0.129-0.036-0.276-0.064-0.424-0.073
		c-0.469-0.11-0.938-0.258-1.417-0.378c-0.258-0.082-0.543-0.156-0.801-0.229c-0.193-0.083-0.368-0.156-0.534-0.193
		c-0.258-0.12-0.534-0.212-0.792-0.331c-0.165-0.064-0.34-0.157-0.524-0.249c-0.239-0.129-0.479-0.23-0.718-0.387
		c-0.175-0.102-0.341-0.184-0.488-0.294c-0.239-0.147-0.469-0.295-0.69-0.442c-0.156-0.11-0.294-0.239-0.441-0.368
		c-0.212-0.175-0.405-0.322-0.626-0.534c-0.11-0.129-0.249-0.258-0.368-0.404c-0.193-0.185-0.359-0.415-0.524-0.626
		c-0.111-0.175-0.23-0.304-0.341-0.479c-0.156-0.23-0.276-0.488-0.414-0.755c-0.093-0.157-0.193-0.313-0.258-0.525
		c-0.129-0.267-0.221-0.543-0.313-0.828c-0.064-0.212-0.156-0.414-0.193-0.599c-0.082-0.35-0.119-0.672-0.184-1.013
		c-0.019-0.221-0.064-0.414-0.083-0.625c-0.046-0.47-0.046-0.939-0.019-1.455c0-0.129-0.027-0.221-0.019-0.368
		c0.102-2.043,0.166-4.124,0.102-6.314c-0.083-3.774-0.534-7.806-1.758-12.473c-1.16-4.409-3.001-9.38-5.846-15.142
		c-2.024-4.041-3.783-10.669-5.468-16.293c-1.841-6.223-0.938-11.603,0.69-15.271c2.421-5.532,6.333-8.915,11.378-7.833
		c2.163,0.47,3.829,1.422,5.071,2.411c2.08,1.671,2.992,3.462,2.992,3.462s0.699-11.171-9.868-13.385c0,0,1.362-2.075,4.382-2.876
		c0.423-0.12,0.902-0.217,1.399-0.244h0.092c0.193-0.037,0.433-0.037,0.662-0.064c0.193-0.014,0.396-0.014,0.617-0.032h0.221
		c0.497,0.019,1.05,0.06,1.63,0.105c0.064,0,0.11,0,0.184,0.01C117.351,127.573,116.081,125.378,114.11,123.058"/>
	<path fill="#FFFFFF" d="M129.363,218.886l-1.565-2.706l-1.353,2.909l-1.354-2.909l-1.583,2.706
		c-2.356-0.175-2.733-3.884-2.733-3.884s-1.262,3.424,0.58,5.661c0.994,1.159,2.347,0,2.347,0s1.196,0.966,2.743,0.175
		c1.564,0.791,2.715-0.175,2.715-0.175s1.399,1.159,2.356,0c1.878-2.237,0.599-5.661,0.599-5.661S131.729,218.711,129.363,218.886"
		/>
	<path fill="#FFFFFF" d="M141.937,179.028c0-6.296-2.696-7.548-2.696-7.548c-1.068-0.35-1.63,0.185-2.522,0.884
		c-0.902,0.736-1.271,2.531-1.271,2.531s1.998,0.543,3.443,2.882c1.436,2.319,0.35,7.723,0.35,7.723S141.937,183.88,141.937,179.028
		"/>
	<path fill="#A8A9AC" d="M221.339,113.306c5.339,0.884,9.582,2.913,9.628,2.932l6.075,2.95l-1.463-6.563
		c-1.942-8.934-8.192-16.804-13.78-22.368c2.09,0.387,3.931,0.88,4.879,1.169l7.115,2.283l-3.185-6.738
		c-5.081-10.737-11.332-16.099-14.995-18.506c9.002-21.82,13.577-38.605,13.577-49.831c0-9.38-3.249-12.266-4.621-13.058
		l-0.046-0.019l0.193,0.134L223.317,5c0,0-1.059,0.226-1.132,0.226c-2.605,0.604-8.496,4.487-22.267,13.83
		c-7.668,5.174-15.565,10.545-21.301,13.96c-8.671,5.183-14.728,6.981-17.498,7.607c-1.225-2.867-1.915-7.967-2.071-10.907
		l-0.267-5.629l-4.741,3.01c-3.295,2.099-6.894,6.973-9.619,11.129c-5.624-9.03-12.61-9.771-12.933-9.794l-4.528-0.396l1.095,4.424
		l0.074,0.998c0,0-0.046,0.709-0.102,1.423c-4.915-3.912-11.57-7.871-12.979-8.689l-5.56-3.24l0.662,6.388
		c0,0,0.064,1.422,0.083,2.112c-7.677-5.656-17.121-8.588-17.545-8.707l-6.479-1.915l2.513,6.241
		c1.059,2.646,1.647,6.153,2.007,9.122C79.583,31.11,56.856,17.179,48.02,10.8c-4.842-3.508-8.635-4.433-11.58-2.804
		c-2.568,1.376-3.811,4.244-3.811,8.694l0.073,1.942c1.537,22.082,9.481,42.623,12.308,49.37
		c-12.574,8.165-18.383,17.775-18.631,18.185l-3.103,5.279l6.149-0.387c1.188-0.097,2.798-0.078,4.759,0.019
		c-10.549,8.096-16.753,18.378-17.038,18.833l-4.188,7.097l7.935-2.338c3.194-0.952,6.554-1.454,9.95-1.717
		c-4.464,4.93-9.72,12.754-12.602,24.205c-1.27,5.044-1.896,10.576-1.896,16.495c0,10.774,2.199,19.169,3.368,22.115l2.348,5.265
		l0.893-1.749l2.127-4.16c0.055-0.12,4.593-9.215,12.224-13.582c-0.092,1.813-0.212,4.479-0.212,4.479
		c0,11.46,2.725,21.843,8.128,30.846l3.369,5.633l2.458-6.075c0.994-2.43,3.166-6.554,5.615-9.518
		c0.828,5.891,3.139,15.096,9.609,22.616l3.903,4.52l1.712-5.697c0.746-2.495,2.154-5.873,3.746-8.479
		c2.081,4.897,6.104,12.722,12.988,19.847l3.6,3.755l1.813-4.896c0-0.028,0.736-1.915,2.153-4.354
		c2.182,8.681,6.131,21.549,11.01,25.222c6.673,4.962,16.881,5.523,17.313,5.541h0.212h0.12c1.178-0.055,11.782-0.708,18.271-5.541
		c5.283-3.939,9.463-18.714,11.396-26.713c1.951,2.974,3.001,5.532,3.13,5.873l1.786,4.833l3.626-3.719
		c6.867-7.125,10.917-14.949,12.979-19.847c1.602,2.605,3.028,5.983,3.746,8.479l1.712,5.697l3.903-4.52
		c6.471-7.521,8.763-16.726,9.592-22.616c2.457,2.964,4.648,7.088,5.633,9.518l2.458,6.075l3.378-5.633
		c5.395-9.003,8.128-19.386,8.128-30.874c0,0-0.138-2.876-0.229-4.703c6.866,3.563,11.957,13.328,12.187,13.752l3.415,6.986
		l2.587-7.309c0.175-0.451,4.151-11.723,4.151-24.918c0-7.967-1.436-15.026-4.28-20.964
		C229.55,122.869,225.104,117.364,221.339,113.306 M229.467,173.653c0,0-7.778-15.979-18.787-16.951
		c1.316,9.624,1.316,24.618-7.042,38.527c0,0-4.989-12.316-11.441-14.737c0,0,0.414,15.694-9.288,26.943
		c0,0-3.231-10.862-8.063-13.66c0,0-3.636,12.85-14.148,23.693c0,0-2.319-6.314-7.382-11.562c-0.396,0.792-0.792,1.564-1.086,2.319
		c0,0-5.183,24.219-11.074,28.646c-5.909,4.4-16.477,4.897-16.477,4.897s-9.591-0.497-15.51-4.897
		c-5.892-4.427-11.056-28.646-11.056-28.646c-0.193-0.46-0.404-0.92-0.644-1.381c-4.456,5.026-6.499,10.623-6.499,10.623
		c-10.494-10.844-14.148-23.693-14.148-23.693c-4.832,2.798-8.072,13.66-8.072,13.66c-9.684-11.249-9.27-26.943-9.27-26.943
		c-6.471,2.421-11.46,14.737-11.46,14.737c-8.404-14.028-8.321-29.152-6.996-38.767c-12.04,2.867-18.87,17.245-18.87,17.245
		s-5.173-18.102-0.745-35.72c5.017-19.942,17.857-28.227,17.857-28.227s-8.635-1.321-19.294,1.809c0,0,9.104-15.423,23.924-22.897
		c0,0-9.49-1.196-14.682-0.838c0,0,6.194-10.595,19.854-18.607c0,0-11.275-24.518-13.099-50.834
		c-0.414-5.85,0.985-11.594,10.145-4.966c9.177,6.637,39.811,25.516,48.298,27.684c0,0-0.322-9.436-2.651-15.262
		c0,0,14.489,4.316,21.476,12.605c0,0,0.497-6.301,0.156-9.448c0,0,14.517,8.464,16.983,12.763c0,0,1.519-7.456,0.847-10.094
		c0,0,7.962,0.668,12.97,13.076c0,0,6.71-11.814,11.607-14.894c0,0,0.506,10.811,3.617,14.346c0,0,7.558-0.424,20.877-8.418
		c13.338-7.944,38.651-26.496,42.655-27.385c0,0,11.7,6.628-11.404,61.438c0,0,9.205,3.875,16.108,18.516
		c0,0-9.159-2.941-14.774-1.644c0,0,16.339,12.133,19.533,26.594c0,0-9.831-4.782-19.174-3.461c0,0,11.092,9.66,16.229,20.407
		C238.34,148.8,229.467,173.653,229.467,173.653"/>
	<path fill="#221F1F" d="M213.229,109.849c9.352-1.32,19.183,3.447,19.183,3.447c-3.194-14.447-19.533-26.579-19.533-26.579
		c5.615-1.312,14.774,1.639,14.774,1.639c-6.903-14.636-16.108-18.511-16.108-18.511c23.104-54.812,11.404-61.438,11.404-61.438
		c-4.004,0.874-29.326,19.436-42.655,27.38c-13.319,7.985-20.877,8.408-20.877,8.408c-3.12-3.534-3.617-14.336-3.617-14.336
		c-4.897,3.083-11.607,14.894-11.607,14.894c-5.008-12.404-12.97-13.085-12.97-13.085c0.672,2.651-0.856,10.106-0.856,10.106
		c-2.457-4.298-16.974-12.762-16.974-12.762c0.341,3.147-0.156,9.443-0.156,9.443c-6.986-8.284-21.476-12.602-21.476-12.602
		c2.329,5.813,2.651,15.263,2.651,15.263c-8.496-2.173-39.13-21.052-48.298-27.685c-9.159-6.627-10.559-0.888-10.145,4.967
		c1.823,26.316,13.09,50.834,13.09,50.834c-13.651,7.999-19.846,18.594-19.846,18.594c5.191-0.346,14.691,0.852,14.691,0.852
		c-14.83,7.475-23.934,22.893-23.934,22.893c10.65-3.13,19.284-1.818,19.284-1.818s-12.831,8.285-17.848,28.241
		c-4.428,17.618,0.745,35.725,0.745,35.725s6.83-14.383,18.87-17.25c-1.325,9.614-1.408,24.733,6.996,38.762
		c0,0,4.979-12.316,11.46-14.746c0,0-0.414,15.694,9.27,26.952c0,0,3.24-10.871,8.072-13.66c0,0,3.654,12.85,14.148,23.693
		c0,0,2.043-5.606,6.499-10.632c0.229,0.47,0.45,0.93,0.644,1.399c0,0,5.155,24.218,11.046,28.636
		c5.929,4.409,15.52,4.889,15.52,4.889s10.567-0.479,16.477-4.889c5.892-4.418,11.074-28.636,11.074-28.636
		c0.294-0.765,0.69-1.528,1.086-2.329c5.063,5.237,7.382,11.562,7.382,11.562c10.503-10.844,14.148-23.693,14.148-23.693
		c4.832,2.789,8.063,13.66,8.063,13.66c9.702-11.258,9.288-26.952,9.288-26.952c6.462,2.43,11.441,14.746,11.441,14.746
		c8.349-13.918,8.349-28.913,7.042-38.527c11.009,0.962,18.787,16.951,18.787,16.951s8.873-24.849,0-43.411
		C224.33,119.51,213.229,109.849,213.229,109.849 M138.891,177.768c-1.455-2.329-3.434-2.872-3.434-2.872s0.358-1.795,1.261-2.531
		c0.893-0.699,1.454-1.233,2.522-0.893c0,0,2.696,1.261,2.696,7.557c0,4.842-2.696,6.472-2.696,6.472
		S140.326,180.097,138.891,177.768 M126.077,207.877v-0.073c-7.198-0.368-10.107-7.53-10.447-13.642
		c-0.368-6.112,0.893-8.45,4.316-8.625c3.442-0.176,5.054,4.133,5.247,5.918c0.166,1.805,0.884,3.434,0.884,3.434v0.064
		c0,0,0.727-1.639,0.92-3.424c0.166-1.786,1.786-6.094,5.22-5.938c3.434,0.175,4.703,2.531,4.335,8.625
		C136.193,200.329,133.312,207.509,126.077,207.877 M131.526,220.653c-0.967,1.16-2.356,0-2.356,0s-1.169,0.985-2.734,0.185
		c-1.537,0.801-2.743-0.185-2.743-0.185s-1.343,1.16-2.347,0c-1.832-2.228-0.57-5.651-0.57-5.651s0.377,3.719,2.733,3.894
		l1.583-2.716l1.344,2.909l1.362-2.909l1.565,2.716c2.365-0.175,2.752-3.894,2.752-3.894S133.395,218.426,131.526,220.653
		 M113.209,185.5c0,0-2.688-1.63-2.688-6.472c0-6.296,2.688-7.557,2.688-7.557c1.086-0.341,1.629,0.193,2.521,0.893
		c0.921,0.736,1.271,2.531,1.271,2.531s-1.961,0.543-3.424,2.872C112.132,180.097,113.209,185.5,113.209,185.5 M115.685,206.045
		c0,0-1.371,6.379,2.725,6.766c0,0,0.663-0.156,0.663,2.191c0,2.347-1.418,3.313-2.007,3.313c-0.599,0-3.332-1.344-3.332-6.425
		C113.733,208.77,114.894,207.03,115.685,206.045 M117.581,175.402c0.524-1.262,3.608-0.516,4.326,0.901
		c1.427-1.417,3.434-0.718,4.326,0.175c0.893-0.893,2.881-1.592,4.326-0.175c0.718-1.417,3.783-2.163,4.345-0.901
		c0,0,0,2.872-1.822,4.667c0,0-1.059-2.339-1.979-2.514c0,0-1.804,2.338-2.521,3.231l-2.348-2.863l-2.348,2.863
		c-0.708-0.894-2.54-3.231-2.54-3.231c-0.884,0.175-1.979,2.514-1.979,2.514C117.581,178.274,117.581,175.402,117.581,175.402
		 M134.444,212.811c4.133-0.387,2.762-6.766,2.762-6.766c0.782,0.985,1.951,2.725,1.951,5.846c0,5.081-2.734,6.425-3.313,6.425
		c-0.599,0-2.035-0.967-2.035-3.313C133.809,212.654,134.444,212.811,134.444,212.811 M90.021,206.202c0,0-4.906-7.824-7.327-13.237
		c-2.899-6.498-4.253-11.275-4.253-11.275c-6.047,2.034-9.692,12.058-9.692,12.058c-5.118-12.73-3.222-26.515-3.222-26.515
		c-9.288,1.215-15.75,12.846-15.75,12.846c-7.271-18.088-0.69-29.879-0.69-29.879c-11.027-1.809-18.916,2.904-23.96,7.843
		c-0.046-2.726-0.092-12.252,1.629-17.729c2.025-6.466,5.183-20.803,24.126-35.435c0,0,3.461-1.478-16.909-1.854
		c0,0,8.781-11.529,23.178-18.005c0,0-9.048-1.564-16.937-0.736c0,0,6.369-12.206,28.415-15.561l1.768-0.313
		c-1.427-2.485-4.961-1.468-6.388-3.907c-0.746-1.33,19.413-6.167,18.667-7.465c-0.893-1.565-17.931-5.744-18.814-7.259
		c-0.507-0.897,6.13-3.668,5.624-4.565c-0.46-0.801-4.17-2.789-7.529-5.067c-3.314-2.255-6.297-4.772-6.619-4.686
		c-2.918,0.714,0.912,28.918,1.068,30.418c0.019,0.156-2.918,0.741-2.918,0.741c-1.602-1.583-14.682-40.7-11.819-47.599
		c0.414-1.018,2.154-0.451,8.45,4.345c26.603,20.209,49.707,25.244,49.707,25.244c0.672-5.307,0-12.634,0-12.634
		c10.346,4,16.348,15.28,16.348,15.28l0.35-0.999c1.564-4.676,1.997-11.28,1.997-11.28c5.008,2.978,9.84,11.019,9.84,11.019
		s1.62,16.191-2.531,24.825c-2.356,4.902-10.235,7.977-17.323,7.58c0,0,1.915,2.546,4.86,4.658c1.776,1.279,5.183,2.582,5.183,2.582
		s-6.232,4.464-20.417,1.376c-1.279,0.138,7.023,8.266,19.045,13.347c5.753,2.449,8.579,11.751,1.086,11.829
		c0,0,6.14,6.991,6.711,12.044l0.957,5.072c-2.329-3.254-5.726-4.299-8.422-4.552c-0.58-0.056-1.133-0.097-1.63-0.115h-0.221
		c-0.221,0.019-0.424,0.019-0.617,0.027c-0.229,0.032-0.469,0.032-0.662,0.069h-0.102c-0.487,0.037-0.967,0.129-1.39,0.253
		c-3.02,0.792-4.382,2.868-4.382,2.868c2.09-0.313,3.323-0.566,6.922,0.648c11.543,3.866,10.043,19.556,10.761,22.083
		c0.027-0.046-2.964-2.127-7.051-2.127c-0.35,0-0.69,0.056-1.05,0.102h0.01c-0.442,0.088-0.884,0.198-1.298,0.359
		c-0.387,0.143-0.765,0.331-1.114,0.538c-0.046,0.027-0.083,0.056-0.119,0.064c-0.332,0.198-0.626,0.414-0.921,0.649
		c-0.073,0.087-0.138,0.124-0.212,0.207c-0.258,0.207-0.497,0.455-0.699,0.699c-0.092,0.11-0.185,0.226-0.276,0.359
		c-0.184,0.216-0.368,0.433-0.497,0.648c-0.119,0.198-0.212,0.396-0.313,0.585c-0.11,0.197-0.212,0.368-0.276,0.557
		c-0.12,0.281-0.202,0.566-0.285,0.856c-0.028,0.114-0.074,0.243-0.12,0.358c-0.073,0.442-0.138,0.865-0.138,1.294
		c0,3.493,2.172,5.937,3.525,7.276c1.206,1.188,2.365,2.586,1.206,2.55c-0.185,0-0.387-0.056-0.663-0.12
		c-5.063-1.252-10.788-6.674-11.184-15.174c-0.304-6.899,1.491-10.457,3.792-11.276c0.166-0.064,0.359-0.11,0.57-0.147
		c0.037,0,0.037,0.019,0.056,0.019c4.041-0.971,9.242,2.375,9.242,2.375s-0.912-1.781-2.992-3.452
		c-1.242-0.998-2.908-1.942-5.071-2.411c-5.035-1.087-8.957,2.292-11.378,7.824c-1.629,3.673-2.531,9.058-0.69,15.271
		c1.685,5.634,3.443,12.266,5.449,16.307c2.863,5.753,4.695,10.715,5.854,15.124c1.215,4.667,1.685,8.707,1.768,12.481
		c0.064,2.19,0,4.28-0.102,6.314c-0.009,0.147,0.019,0.249,0.019,0.368c-0.027,0.516-0.027,0.994,0.019,1.455
		c0.019,0.202,0.064,0.404,0.083,0.625c0.064,0.332,0.102,0.663,0.175,1.013c0.046,0.185,0.138,0.396,0.202,0.607
		c0.093,0.268,0.185,0.562,0.313,0.829c0.064,0.193,0.165,0.368,0.258,0.524c0.138,0.267,0.258,0.506,0.404,0.755
		c0.12,0.156,0.239,0.304,0.351,0.46c0.165,0.23,0.331,0.442,0.524,0.636c0.119,0.138,0.258,0.275,0.377,0.404
		c0.212,0.203,0.405,0.368,0.617,0.534c0.147,0.129,0.285,0.258,0.441,0.378c0.222,0.138,0.442,0.285,0.69,0.433
		c0.139,0.11,0.313,0.202,0.488,0.304c0.239,0.138,0.479,0.248,0.718,0.386c0.193,0.074,0.359,0.176,0.516,0.249
		c0.267,0.119,0.543,0.202,0.792,0.313c0.175,0.056,0.35,0.129,0.543,0.203c0.248,0.073,0.543,0.138,0.801,0.221
		c0.479,0.129,0.948,0.276,1.408,0.387c0.156,0,0.304,0.037,0.433,0.073c0.322,0.074,0.635,0.129,0.93,0.175
		c0.138,0.01,0.294,0.047,0.423,0.056c0.322,0.064,0.617,0.083,0.921,0.119c0.138,0.019,0.276,0.037,0.396,0.056
		c0.295,0.019,0.599,0.056,0.902,0.073c0.119,0.019,0.239,0.037,0.358,0.037c0.286,0.01,0.58,0.027,0.856,0.037
		c0.653,0.027,1.289,0.037,1.851,0.037c9.333,0,12.583-5.395,13.135-12.657c0.607-8.349-0.801-18.438,7.521-33.165
		c3.176-5.56-2.642,4.308-3.037,20.232c-0.359,15.133-0.064,31.766-19.404,32.144h-0.175c-0.911,0.036-1.841,0.046-2.872-0.037
		c0,0-7.456-0.092-11.708-5.873c-4.621-6.296-4.354-16.044-5.284-23.519c-0.212-1.702-0.497-3.322-0.92-4.722
		c-0.599-1.951-1.262-3.857-2.007-5.67c-0.01-0.074-0.046-0.139-0.064-0.193c-0.11-0.276-0.221-0.525-0.341-0.755
		c-0.893-2.2-1.851-4.244-2.752-6.011c-2.256-4.455-4.18-7.346-4.207-7.42c-0.119,2.863-0.285,6.711,1.62,11.829
		c0.046,0.082,0.064,0.211,0.11,0.285c0.911,2.319,1.813,7.263,1.813,7.263c-0.276,0.156-0.543,0.368-0.819,0.562
		c-1.749,1.316-3.902,3.719-3.902,3.719l-0.028-0.046C92.056,203.247,90.021,206.202,90.021,206.202 M160.596,115.588
		c-5.376,4.06-8.828-1.809-8.828-1.809l2.329-1.606c0,0,1.997,1.805,4.713,0.548c2.706-1.271,1.786-3.977,1.786-3.977l2.918-1.979
		C163.514,106.766,165.769,111.704,160.596,115.588 M139.912,110.553c-0.46-3.488,9.665-24.186,10.089-21.604
		c0.45,2.628,1.325,5.307,1.831,4.487c1.344-2.232,9.858-6.438,9.858-6.438s-3.037,5.27-1.702,4.469
		c1.822-1.086,6.296,1.16,6.296,1.16C153.701,97.519,143.769,103.125,139.912,110.553 M228.353,158.645l-0.533,0.019l-1.013-6.241
		c-4.906-17.36-12.639-30.104-24.412-40.088l-4.74-3.824l-8.588-7.005l9.95-1.423c3.471-0.565,9.887-0.35,14.13-0.188
		c0,0,0.855,0.037,1.491,0.056c-7.281-7.608-23.464-18.493-23.602-18.59l-1.924-0.948l0.589-0.197
		c6.112-2.03,16.624-1.735,19.303-1.625c-1.325-1.298-5.716-5.307-11.966-8.22l-0.286-0.139l0.175-0.243
		c10.145-15.17,15.188-34.464,17.306-44.635c0.175-0.884,0.175-0.884,0.35-0.99c-0.184,0-1.067,0.249-5.624,4.396
		c-0.635,0.479-8.063,6.766-18.023,16.118c0.239,0.345,3.922,6.126,3.922,6.126l-0.368,0.073c-6.729,1.68-14.213,3.038-21.107,3.839
		c0.682,0.695,9.361,9.209,9.361,9.209l-0.276,0.442l-8.569-4.345c-5.836-3.148-11.368-6.145-17.756-6.89l-0.056-0.502l3.295-1.252
		l6.324-2.356c15.842-5.279,39.968-22.612,40.989-23.349c7.824-6.438,10.153-8.238,11.728-7.492
		c1.104,0.506,1.491,1.556,1.491,2.356v0.009c-0.027,0.29-5.799,29.861-17.664,48.354c1.481,0.566,10.88,4.479,15.888,12.574
		l0.258,0.405h-0.488c-0.12,0-10.457-0.18-16.118,0.801c6.039,3.838,19.045,15.809,22.792,22.396l0.258,0.474l-0.525-0.087
		c-9.775-1.556-19.91-1.16-22.331-1.026c0.636,0.64,3.001,3.056,3.001,3.056l4.114,4.138c12.786,10.857,19.285,26.031,19.285,45.127
		C228.381,157.513,228.353,158.078,228.353,158.645"/>
	<path fill="#A8A9AC" d="M159.988,91.467c-1.326,0.801,1.702-4.469,1.702-4.469s-8.515,4.206-9.858,6.438
		c-0.506,0.819-1.381-1.854-1.822-4.487c-0.424-2.582-10.558,18.12-10.098,21.604c3.856-7.424,13.789-13.034,26.372-17.926
		C166.284,92.627,161.819,90.385,159.988,91.467"/>
	<path fill="#A8A9AC" d="M94.697,200.402c-0.239-0.331-4.206-6.277-7.097-16.421c-1.16-4.105-2.421-13.146-2.697-18.355
		c-6.857,0-10.484,8.027-10.484,8.027c-2.43-10.259-1.887-16.726-1.169-20.716c-6.913,0.221-12.142,6.655-12.142,6.655
		s-1.666-6.54,4.014-19.699c3.894-9.085,11.497-13.857,16.919-15.639c-5.045-2.32-7.208-7.217-7.88-10.876
		c-1.298-7.221,3.783-18.814,3.783-18.814c8.34,7.957,19.303,11.603,27.091,17.549c7.465,5.707,9.131,10.973,9.131,10.973
		l-0.056-0.028c1.971,2.32,3.24,4.516,3.581,5.703c-0.073-0.01-0.119-0.01-0.184-0.01c2.696,0.268,6.093,1.303,8.422,4.553
		l-0.957-5.059c-0.571-5.054-6.711-12.059-6.711-12.059c7.493-0.064,4.677-9.38-1.086-11.819
		c-12.021-5.09-20.315-13.214-19.045-13.347c14.194,3.093,20.417-1.386,20.417-1.386s-3.406-1.303-5.183-2.572
		c-2.945-2.122-4.86-4.667-4.86-4.667c7.088,0.396,14.967-2.674,17.323-7.566c4.161-8.635,2.531-24.84,2.531-24.84
		s-4.832-8.04-9.84-11.019c0,0-0.433,6.609-1.997,11.281l-0.35,1.013c0,0-6.002-11.295-16.348-15.28c0,0,0.672,7.313,0,12.629
		c0,0-23.104-5.044-49.698-25.24c-6.305-4.81-8.045-5.375-8.459-4.358c-2.862,6.903,10.218,46.029,11.819,47.612
		c0,0,2.937-0.594,2.908-0.745c-0.146-1.51-3.977-29.709-1.059-30.427c0.322-0.083,3.305,2.438,6.619,4.685
		c3.359,2.283,7.069,4.271,7.529,5.072c0.506,0.893-6.131,3.673-5.615,4.57c0.875,1.519,17.913,5.684,18.806,7.249
		c0.746,1.312-19.413,6.135-18.658,7.465c1.427,2.448,4.962,1.422,6.379,3.912l-1.768,0.313
		c-22.036,3.364-28.415,15.569-28.415,15.569c7.889-0.828,16.937,0.732,16.937,0.732c-14.396,6.466-23.178,17.995-23.178,17.995
		c20.37,0.378,16.919,1.859,16.919,1.859c-18.953,14.627-22.11,28.964-24.136,35.431c-1.721,5.477-1.675,15.013-1.62,17.729
		c5.035-4.938,12.934-9.651,23.961-7.843c0,0-6.591,11.801,0.681,29.893c0,0,6.462-11.644,15.75-12.858
		c0,0-1.887,13.788,3.222,26.51c0,0,3.646-10.015,9.692-12.04c0,0,1.354,4.769,4.262,11.267c2.412,5.413,7.318,13.237,7.318,13.237
		S92.056,203.256,94.697,200.402"/>
	<path fill="#A8A9AC" d="M127.789,227.392c-0.046,1.776-1.537,3.571-1.556,3.608c19.34-0.378,19.045-17.011,19.404-32.144
		c0.396-15.925,6.213-25.792,3.037-20.232c-8.321,14.728-6.903,24.816-7.521,33.165c-0.543,7.263-3.802,12.657-13.126,12.657
		c-0.57,0-1.215-0.01-1.859-0.037c0.064,0,0.11,0.019,0.166,0.019C126.335,224.428,127.798,225.938,127.789,227.392"/>
	<polygon fill="#A8A9AC" points="126.233,231 126.233,231 126.067,231 	"/>
	<path fill="#A8A9AC" d="M108.505,131.858c10.567,2.214,9.868,13.384,9.868,13.384s-5.201-3.355-9.242-2.375
		c3.305,0.603,7.502,5.799,8.956,9.697c0.359-0.055,0.7-0.102,1.05-0.102c4.087,0,7.078,2.085,7.051,2.132
		c-0.718-2.527,0.782-18.222-10.761-22.097C111.828,131.283,110.595,131.545,108.505,131.858c0,0,1.362-2.076,4.382-2.877
		C109.867,129.782,108.505,131.858,108.505,131.858"/>
	<path fill="#FDD41E" d="M160.596,108.744c0,0,0.92,2.706-1.786,3.977c-2.725,1.257-4.713-0.543-4.713-0.543l-2.338,1.602
		c0,0,3.461,5.873,8.837,1.809c5.173-3.894,2.918-8.822,2.918-8.822L160.596,108.744z"/>
	<path fill="#221F1F" d="M80.65,100.998c1.151,1.648,2.982,3.544,2.808,4.994c-0.479,4.101-0.11,11.331,6.821,13.808
		c8.349,2.959,10.447-0.658,13.808-0.773c1.27-0.064,3.028,0.502,4.713,1.247c2.633,1.118,5.044,2.609,5.311,2.789l0.056,0.019
		c0,0-1.666-5.261-9.131-10.973c-7.797-5.937-18.751-9.587-27.081-17.549c0,0,0,0.064,0.019,0.092
		C78.092,95.057,79.15,98.762,80.65,100.998 M88.355,106.766l2.872,1.979c0,0-0.902,2.706,1.822,3.977
		c2.697,1.257,4.686-0.543,4.686-0.543l2.356,1.602c0,0-3.452,5.873-8.864,1.809C86.063,111.694,88.355,106.766,88.355,106.766"/>
	<path fill="#FDD41E" d="M91.228,115.584c5.412,4.073,8.854-1.8,8.854-1.8l-2.356-1.602c0,0-1.988,1.79-4.676,0.538
		c-2.725-1.266-1.822-3.981-1.822-3.981l-2.872-1.979C88.355,106.761,86.063,111.699,91.228,115.584"/>
	<path fill="#981B33" d="M132.217,185.602c-3.425-0.176-5.054,4.133-5.22,5.928c-0.193,1.776-0.911,3.424-0.911,3.424v-0.073
		c0,0-0.736-1.62-0.893-3.425c-0.202-1.785-1.813-6.094-5.247-5.928c-3.424,0.193-4.685,2.522-4.316,8.635
		c0.34,6.121,3.249,13.273,10.456,13.642v0.064c7.226-0.359,10.107-7.539,10.466-13.651
		C136.92,188.133,135.65,185.776,132.217,185.602"/>
	<path fill="#005183" d="M209.096,111.828l-4.104-4.138c0,0-2.385-2.412-3.011-3.065c2.421-0.119,12.556-0.516,22.331,1.04
		l0.525,0.074l-0.258-0.461c-3.747-6.6-16.753-18.562-22.792-22.396c5.661-0.98,15.998-0.805,16.118-0.805h0.488l-0.258-0.405
		c-5.008-8.105-14.406-12.018-15.879-12.574c11.856-18.492,17.637-48.059,17.664-48.354v-0.009c0-0.801-0.387-1.846-1.5-2.356
		c-1.574-0.746-3.903,1.059-11.728,7.492c-1.021,0.736-25.147,18.069-40.98,23.34l-6.333,2.356l-3.295,1.266l0.056,0.497
		c6.388,0.745,11.92,3.732,17.756,6.88l8.569,4.345l0.276-0.441c0,0-8.68-8.501-9.361-9.2c6.904-0.801,14.378-2.168,21.107-3.834
		l0.368-0.078c0,0-3.683-5.776-3.922-6.135c9.96-9.344,17.389-15.64,18.023-16.109c4.557-4.146,5.449-4.391,5.624-4.391
		c-0.175,0.092-0.175,0.092-0.35,0.989c-2.117,10.167-7.161,29.466-17.306,44.631l-0.165,0.243l0.276,0.144
		c6.25,2.913,10.641,6.917,11.966,8.22c-2.679-0.115-13.19-0.405-19.293,1.62l-0.599,0.197l1.924,0.953
		c0.138,0.083,16.329,10.981,23.602,18.59c-0.626-0.032-1.491-0.069-1.491-0.069c-4.243-0.152-10.659-0.378-14.13,0.197l-9.95,1.423
		l8.588,6.995l4.74,3.839c11.773,9.969,19.515,22.723,24.412,40.088l1.013,6.236l0.533-0.019c0-0.562,0.028-1.128,0.028-1.685
		C228.381,137.864,221.891,122.676,209.096,111.828"/>
</g>
</svg>
